<?xml version="1.0" encoding="UTF-8"?><svg version="1.1" xmlns="http://www.w3.org/2000/svg" xmlns:xlink="http://www.w3.org/1999/xlink" viewBox="0 0 1200 800" width="1200" height="800" x="0px" y="0px">
    
    
    <!-- ITEM 0 -->
    <g>
        <defs>
            <clipPath id="clip-path-id-viewbox-item-0">
                <rect x="0.0" y="0.0" width="337.986" height="253.19"/>
            </clipPath>
        </defs>
        <g transform="translate(431.0 273.0) rotate(0.0 168.5 126.5) scale(0.9970827194025789 0.9992495754176706)">
            <g clip-path="url(#clip-path-id-viewbox-item-0)" transform="translate(-0.0 -0.0)">
                <title>computer_2</title><g id="Layer_2-i0" data-name="Layer 2"><g id="Layer_1-2-i0" data-name="Layer 1"><rect width="337.986" height="204.708" fill="#2b2b2b"/><rect x="26.03" y="27.745" width="151.438" height="7.264" fill="#1a508b"/><rect x="210.257" y="27.745" width="101.698" height="7.264" fill="#f3dada"/><rect x="26.03" y="48.73" width="78.392" height="7.264" fill="#fef7fb"/><rect x="137.212" y="48.73" width="174.744" height="7.264" fill="#94d7eb"/><rect x="26.03" y="69.817" width="151.438" height="7.264" fill="#1a508b"/><rect x="196.536" y="69.817" width="115.319" height="7.264" fill="#1a508b"/><rect x="26.03" y="90.903" width="151.438" height="7.264" fill="#f3dada"/><rect x="210.257" y="90.903" width="101.698" height="7.264" fill="#fef7fb"/><rect x="26.03" y="111.888" width="151.438" height="7.264" fill="#fef7fb"/><rect x="210.257" y="111.888" width="101.698" height="7.264" fill="#1a508b"/><rect x="26.03" y="132.874" width="55.591" height="7.264" fill="#94d7eb"/><rect x="114.209" y="132.874" width="197.646" height="7.264" fill="#1a508b"/><rect x="26.03" y="153.96" width="115.924" height="7.264" fill="#1a508b"/><rect x="174.643" y="153.96" width="137.212" height="7.264" fill="#f3dada"/><rect x="26.03" y="175.046" width="151.438" height="7.264" fill="#94d7eb"/><rect x="210.257" y="175.046" width="101.698" height="7.264" fill="#fef7fb"/><path d="M262.439,248.147H241.908l-42.552-57.606a2.5,2.5,0,0,0-2.01-1.015H140.64a2.5,2.5,0,0,0-2.011,1.015L96.078,248.147H75.546a2.5,2.5,0,1,0,0,5H97a2.413,2.413,0,0,0,.307.043H240.679a2.438,2.438,0,0,0,.307-.043h21.453a2.5,2.5,0,0,0,0-5ZM141.9,194.526h54.183l39.608,53.621h-133.4Z" fill="#2b2b2b"/></g></g>
            </g>
        </g>
    </g>
    
</svg>